HIERARCHY
ROOT Pelvis
{
	OFFSET 0.000000 0.000000 0.000000
	CHANNELS 6 Xposition Yposition Zposition Xrotation Yrotation Zrotation
	JOINT LeftUpLeg_virtual
	{
		OFFSET 0.000000 0.000000 0.000000
		CHANNELS 3 Xrotation Yrotation Zrotation
		JOINT LeftUpLeg
		{
			OFFSET 18.735201 -5.666702 -4.541200
			CHANNELS 3 Xrotation Yrotation Zrotation
			JOINT LeftLeg
			{
				OFFSET -0.021200 -31.938179 0.493100
				CHANNELS 3 Xrotation Yrotation Zrotation
				JOINT LeftFoot
				{
					OFFSET 0.021200 -31.938179 -4.336299
					CHANNELS 3 Xrotation Yrotation Zrotation
					JOINT LeftToeBase
					{
						OFFSET 0.943001 -26.722000 15.023500
						CHANNELS 3 Xrotation Yrotation Zrotation
						End Site
						{
							OFFSET 0 0 0
						}
					}
				}
			}
		}
	}
	JOINT RightUpLeg_virtual
	{
		OFFSET 0.000000 0.000000 0.000000
		CHANNELS 3 Xrotation Yrotation Zrotation
		JOINT RightUpLeg
		{
			OFFSET -18.735201 -5.666702 -4.541200
			CHANNELS 3 Xrotation Yrotation Zrotation
			JOINT RightLeg
			{
				OFFSET 0.018946 -31.938133 0.493100
				CHANNELS 3 Xrotation Yrotation Zrotation
				JOINT RightFoot
				{
					OFFSET -0.018946 -31.938126 -4.336299
					CHANNELS 3 Xrotation Yrotation Zrotation
					JOINT RightToeBase
					{
						OFFSET -0.943001 -26.722004 15.023500
						CHANNELS 3 Xrotation Yrotation Zrotation
						End Site
						{
							OFFSET 0 0 0
						}
					}
				}
			}
		}
	}
	JOINT Hips_virtual
	{
		OFFSET 0.000000 0.000000 0.000000
		CHANNELS 3 Xrotation Yrotation Zrotation
		JOINT Hips
		{
			OFFSET -0.000000 -0.000000 -0.000000
			CHANNELS 3 Xrotation Yrotation Zrotation
			JOINT Spine
			{
				OFFSET 0.000000 10.199997 -0.299500
				CHANNELS 3 Xrotation Yrotation Zrotation
				JOINT Spine1
				{
					OFFSET 0.000000 11.900002 -1.516600
					CHANNELS 3 Xrotation Yrotation Zrotation
					JOINT Spine2
					{
						OFFSET 0.000000 13.600006 -2.842500
						CHANNELS 3 Xrotation Yrotation Zrotation
						JOINT Neck_virtual
						{
							OFFSET 0.000000 0.000000 0.000000
							CHANNELS 3 Xrotation Yrotation Zrotation
							JOINT Neck
							{
								OFFSET 0.000000 9.624100 -2.890100
								CHANNELS 3 Xrotation Yrotation Zrotation
								JOINT Head
								{
									OFFSET 0.000000 14.068802 -1.351900
									CHANNELS 3 Xrotation Yrotation Zrotation
									End Site
									{
										OFFSET 0 0 0
									}
								}
							}
						}
						JOINT LeftShoulder_virtual
						{
							OFFSET 0.000000 0.000000 0.000000
							CHANNELS 3 Xrotation Yrotation Zrotation
							JOINT LeftShoulder
							{
								OFFSET 15.263000 10.923401 -0.547700
								CHANNELS 3 Xrotation Yrotation Zrotation
								JOINT LeftArm
								{
									OFFSET 25.438599 -2.830597 -13.032500
									CHANNELS 3 Xrotation Yrotation Zrotation
									JOINT LeftForeArm
									{
										OFFSET 29.960503 0.000000 0.000000
										CHANNELS 3 Xrotation Yrotation Zrotation
										JOINT LeftHand
										{
											OFFSET 27.849251 0.000000 0.000000
											CHANNELS 3 Xrotation Yrotation Zrotation
											End Site
											{
												OFFSET 0 0 0
											}
										}
									}
								}
							}
						}
						JOINT RightShoulder_virtual
						{
							OFFSET 0.000000 0.000000 0.000000
							CHANNELS 3 Xrotation Yrotation Zrotation
							JOINT RightShoulder
							{
								OFFSET -15.263000 10.923401 -0.547700
								CHANNELS 3 Xrotation Yrotation Zrotation
								JOINT RightArm
								{
									OFFSET -25.438599 -2.830597 -13.032500
									CHANNELS 3 Xrotation Yrotation Zrotation
									JOINT RightForeArm
									{
										OFFSET -29.960503 0.000000 0.000000
										CHANNELS 3 Xrotation Yrotation Zrotation
										JOINT RightHand
										{
											OFFSET -27.849251 0.000000 0.000000
											CHANNELS 3 Xrotation Yrotation Zrotation
											End Site
											{
												OFFSET 0 0 0
											}
										}
									}
								}
							}
						}
					}
				}
			}
		}
	}
}
MOTION
Frames: 9
Frame Time: 0.03333333
-0.307634 92.100876 8.740257 0.000000 0.000000 0.000000 -7.379985 -12.051170 8.107747 -32.319987 15.664025 0.491606 24.815510 5.373234 2.348769 29.089181 14.952607 -10.836957 0.000000 0.000000 0.000000 -8.645024 -10.510657 7.724228 -10.082977 -8.135042 12.400723 29.769919 -11.613106 -0.755631 -28.939488 -10.950374 -13.462130 0.000000 0.000000 0.000000 -8.724402 -11.749569 8.243632 -0.902225 0.153842 -0.557445 1.549612 1.870360 -5.127895 3.333800 3.290368 -4.912107 0.000000 0.000000 0.000000 1.057199 2.993664 -4.481361 1.327156 0.380132 1.401204 0.000000 0.000000 0.000000 1.726757 3.173985 -4.791913 2.309939 -0.885739 -2.832801 -24.469535 8.232802 -30.754778 -2.079406 -22.118630 -0.570659 0.000000 0.000000 0.000000 1.516372 3.288110 -4.634090 1.528584 -4.872040 4.840808 -38.450383 24.119263 5.513751 3.190645 20.270144 -0.428689 0.000000 0.000000 0.000000 
-1.001247 92.028076 9.788685 0.000000 0.000000 0.000000 -8.009687 -13.324742 7.992894 -33.544869 14.721795 -0.011014 24.642885 5.137899 2.324230 28.811807 14.225127 -10.646516 0.000000 0.000000 0.000000 -8.824849 -11.487393 7.508470 -10.287910 -8.165454 12.343991 31.839173 -11.002127 -0.755710 -26.539199 -10.858773 -12.142366 0.000000 0.000000 0.000000 -8.922802 -13.005846 8.134410 -0.617375 0.020793 -0.659929 1.752814 2.303036 -5.044433 3.256721 3.664398 -4.967043 0.000000 0.000000 0.000000 1.105585 3.335537 -4.519750 1.246983 0.347265 1.426263 0.000000 0.000000 0.000000 1.558644 3.550168 -4.737929 1.934120 -0.749445 -1.654893 -26.137428 9.003852 -27.960486 -2.355411 -22.796071 -0.448869 0.000000 0.000000 0.000000 1.579226 3.673947 -4.704983 1.472757 -4.552645 4.462271 -39.513635 28.025569 5.023135 2.902542 19.833116 -0.181818 0.000000 0.000000 0.000000 
-2.178331 91.820908 10.840027 0.000000 0.000000 0.000000 -8.074547 -16.212187 7.745418 -34.521648 14.200403 -1.257523 23.909163 4.951681 2.107751 30.133330 14.096372 -11.146015 0.000000 0.000000 0.000000 -8.773807 -14.388736 7.173339 -10.062861 -8.297027 12.400733 34.081657 -10.180867 -0.899714 -24.301499 -9.948671 -12.764929 0.000000 0.000000 0.000000 -8.735213 -15.945464 7.869951 -0.199288 -0.190768 -0.875713 1.899742 2.987690 -4.957761 3.177530 4.455606 -4.865144 0.000000 0.000000 0.000000 1.328724 4.179945 -4.438875 1.255570 0.366270 1.404567 0.000000 0.000000 0.000000 1.401796 4.407253 -4.585044 1.531216 -0.082627 0.209990 -28.005738 9.503981 -23.479793 -2.204275 -23.400054 -0.252930 0.000000 0.000000 0.000000 1.749034 4.486327 -4.576696 1.424564 -4.686921 3.879029 -40.612773 33.228624 5.027453 2.532591 18.944290 -0.161061 0.000000 0.000000 0.000000 
-3.657427 91.592926 11.971470 0.000000 0.000000 0.000000 -7.702677 -20.289145 7.296461 -34.982112 14.055300 -3.190080 23.326706 5.048431 1.900850 32.776654 15.104658 -11.603583 0.000000 0.000000 0.000000 -8.366697 -18.718518 6.723797 -8.862026 -8.730841 12.647582 35.334478 -9.461654 -0.990025 -24.429678 -8.248837 -14.570148 0.000000 0.000000 0.000000 -8.224921 -19.948291 7.442803 0.054466 -0.379731 -1.151886 1.879540 3.732775 -4.827281 3.065327 5.531017 -4.619670 0.000000 0.000000 0.000000 1.615597 5.307495 -4.218104 1.352781 0.454223 1.369597 0.000000 0.000000 0.000000 1.290149 5.533345 -4.350983 1.160495 0.977657 2.273002 -28.970517 9.726179 -18.285509 -1.719124 -23.193009 -0.039280 0.000000 0.000000 0.000000 1.935664 5.553114 -4.277954 1.379277 -5.089226 3.246566 -41.398330 38.774564 5.175638 2.144979 17.824386 -0.277721 0.000000 0.000000 0.000000 
-5.295836 91.417633 13.142124 0.000000 0.000000 0.000000 -7.097169 -24.745287 6.674501 -34.667376 14.043376 -5.838242 22.877391 5.648533 1.887743 35.792954 17.494467 -11.433788 0.000000 0.000000 0.000000 -7.541972 -23.654624 6.245058 -7.040616 -9.601094 12.919326 35.379106 -8.413536 -0.869050 -24.563088 -6.079400 -14.980104 0.000000 0.000000 0.000000 -7.383826 -24.304164 6.938627 -0.019086 -0.400670 -1.371536 1.605475 4.382011 -4.572771 2.839912 6.681173 -4.269331 0.000000 0.000000 0.000000 1.819378 6.504099 -3.877992 1.483356 0.588393 1.349112 0.000000 0.000000 0.000000 1.188783 6.693635 -4.051831 0.858890 2.310386 4.310657 -28.954593 9.989973 -13.221115 -1.104659 -21.606424 0.188789 0.000000 0.000000 0.000000 2.037568 6.668259 -3.878065 1.319053 -5.452832 2.663054 -41.925986 44.027304 4.867598 1.783774 16.908553 -0.400325 0.000000 0.000000 0.000000 
-7.078788 91.334892 14.418701 0.000000 0.000000 0.000000 -6.428378 -28.877753 5.952563 -33.769029 13.702870 -9.042884 23.112621 6.755890 2.112487 38.043928 21.049265 -10.426131 0.000000 0.000000 0.000000 -6.544181 -28.302714 5.693442 -5.404826 -11.034862 12.914603 34.924506 -6.665075 -0.487523 -22.277200 -3.866790 -12.867574 0.000000 0.000000 0.000000 -6.446813 -28.247747 6.349915 -0.215032 -0.323465 -1.456690 1.136226 4.798603 -4.208089 2.460545 7.694153 -3.917797 0.000000 0.000000 0.000000 1.791873 7.530045 -3.509133 1.582399 0.742001 1.362273 0.000000 0.000000 0.000000 1.018728 7.677126 -3.739637 0.604920 3.693865 5.915221 -28.492605 10.660414 -8.690625 -0.581861 -18.980624 0.429802 0.000000 0.000000 0.000000 1.910407 7.643958 -3.488865 1.219922 -5.618084 2.181584 -42.215265 48.392044 3.808364 1.569201 16.235884 -0.423850 0.000000 0.000000 0.000000 
-8.986412 91.240509 15.692783 0.000000 0.000000 0.000000 -5.920981 -32.032942 5.183355 -32.829963 13.234942 -12.330068 24.740388 8.306934 2.380683 37.682512 25.489556 -8.236962 0.000000 0.000000 0.000000 -5.640002 -31.648197 5.035420 -4.473301 -13.309820 12.278710 34.990550 -4.843717 0.207959 -18.424816 -1.997144 -9.593831 0.000000 0.000000 0.000000 -5.596976 -31.225760 5.723643 -0.410171 -0.183736 -1.321459 0.615830 4.961513 -3.824171 1.987787 8.474192 -3.697330 0.000000 0.000000 0.000000 1.558620 8.263760 -3.282124 1.634062 0.885778 1.392741 0.000000 0.000000 0.000000 0.813822 8.375995 -3.545407 0.410077 4.922084 6.973308 -28.292428 11.621230 -4.788271 -0.290460 -16.421752 0.670920 0.000000 0.000000 0.000000 1.613076 8.346956 -3.264823 1.092011 -5.591823 1.712692 -42.549968 51.346425 2.302867 1.485678 15.684539 -0.253223 0.000000 0.000000 0.000000 
-10.958245 90.937378 16.659765 0.000000 0.000000 0.000000 -5.702777 -33.823855 4.486599 -32.287998 12.616197 -15.284589 28.156104 10.013068 2.376484 32.954269 30.070639 -4.458429 0.000000 0.000000 0.000000 -5.046829 -33.410089 4.327788 -3.943475 -16.384108 10.941117 35.862315 -3.596416 1.167225 -15.074564 -0.735699 -6.071818 0.000000 0.000000 0.000000 -5.054295 -33.059403 5.135279 -0.467681 0.111701 -1.427759 0.192088 4.895314 -3.510844 1.516859 8.947988 -3.737091 0.000000 0.000000 0.000000 1.120545 8.698837 -3.324056 1.610751 0.984660 1.414643 0.000000 0.000000 0.000000 0.611339 8.754623 -3.598837 0.292574 5.804882 7.350397 -28.955682 12.315615 -1.706164 -0.126791 -14.983548 0.961153 0.000000 0.000000 0.000000 1.211737 8.759766 -3.301775 0.985547 -5.351390 1.359217 -43.731335 52.571717 1.863919 1.464465 15.293203 0.031260 0.000000 0.000000 0.000000 
-12.963006 90.366455 17.268665 0.000000 0.000000 0.000000 -5.703519 -34.588956 3.963434 -32.195743 11.974216 -17.456799 32.904535 11.368553 1.862432 23.482452 33.362728 0.528984 0.000000 0.000000 0.000000 -4.867036 -34.045307 3.718206 -3.933229 -19.477951 8.566328 37.417422 -2.697717 2.121695 -12.421748 0.221049 -1.651508 0.000000 0.000000 0.000000 -4.946699 -33.988623 4.593422 -0.463028 0.327929 -1.722138 0.047194 4.667010 -3.421969 1.106516 9.133984 -4.100454 0.000000 0.000000 0.000000 0.579775 8.846411 -3.684571 1.533583 1.039455 1.427599 0.000000 0.000000 0.000000 0.428255 8.868114 -3.969152 0.251834 6.257401 7.139900 -30.528186 12.208724 0.529716 0.006408 -15.069487 1.235922 0.000000 0.000000 0.000000 0.797531 8.924452 -3.648605 0.958713 -4.927136 1.189579 -46.153128 51.854844 3.564758 1.552274 15.299610 0.330715 0.000000 0.000000 0.000000 
